<svg version="1.1" xmlns="http://www.w3.org/2000/svg" viewBox="0 0 211 211">
  <!-- svg-source:excalidraw -->
  <defs>
    <style>
      @font-face {
        font-family: "Virgil";
        src: url("https://excalidraw.com/FG_Virgil.woff2");
      }
      @font-face {
        font-family: "Cascadia";
        src: url("https://excalidraw.com/Cascadia.woff2");
      }
    </style>
  </defs>
  <g transform="translate(10 10) rotate(0 95.5 95.5)"><path d="M91.67737857266411 -0.46476453805217943 C103.49178744201973 -2.4507742474723955, 117.41689309476992 0.7224657842312068, 129.23349224898408 5.397844984482703 C141.05009140319822 10.073224184734197, 153.6242298509052 18.926436471082845, 162.57697349794904 27.587510663456797 C171.52971714499287 36.24858485583075, 178.15529871040806 46.19219917656368, 182.94995413124713 57.36429013872643 C187.7446095520862 68.53638110088919, 191.26884047610616 81.87364221602486, 191.34490602298337 94.6200564364333 C191.42097156986057 107.36647065684174, 188.4686802853202 122.07363810188389, 183.40634741251043 133.84277546117707 C178.34401453970065 145.61191282047025, 169.83625067198392 156.73675132313846, 160.97090878612468 165.23488059219238 C152.10556690026544 173.7330098612463, 141.6366660560743 180.45991178720183, 130.21429609735497 184.83155107550064 C118.79192613863566 189.20319036379945, 105.209728775344 191.8627527172329, 92.43668903380878 191.46471632198518 C79.66364929227355 191.06667992673746, 64.88509158971874 188.0431269973021, 53.57605764814358 182.44333270401432 C42.26702370656842 176.84353841072655, 32.71035130723247 167.34975275692855, 24.582485384357838 157.86595056225855 C16.4546194614832 148.38214836758854, 8.810828464959055 137.09329035786345, 4.80886211089576 125.54051953599429 C0.8068957568324651 113.98774871412513, -0.46127255836129666 100.88044125121331, 0.5706872599780723 88.54932563104357 C1.6026470783174414 76.21821001087383, 5.216371526655998 62.64940828314214, 11.000621020931973 51.553825814975866 C16.78487051520795 40.458243346809596, 25.569753478148314 29.866251174522876, 35.276184225633926 21.97583082204595 C44.98261497311954 14.085410469569023, 58.75989120558256 7.819678471491294, 69.23920550584563 4.2113037001143 C79.7185198061087 0.6029289287373061, 92.20574624709782 0.7556901783830388, 98.15207002721233 0.3255821937839869 C104.09839380732684 -0.10452579081506502, 105.05400189422923 0.008534989291961947, 104.9171481865327 1.6306557925199883 M79.02950015089444 0.8636903745709503 C90.59636861696139 -2.067657411100342, 105.8618153714678 0.6509902601576534, 118.37411304546836 3.9318369315200243 C130.88641071946893 7.212683602882395, 144.156234973072 13.266713740167173, 154.10328619489778 20.548770402745177 C164.05033741672355 27.83082706532318, 172.26708014360452 36.879789965718324, 178.0564203764231 47.62417690698805 C183.84576060924167 58.36856384825777, 187.14733006656428 72.40616790597869, 188.8393275918092 85.0150920503635 C190.5313251170541 97.62401619474832, 191.41262906269796 111.2610471673559, 188.2084055278926 123.27772177329693 C185.00418199308726 135.29439637923798, 177.50649682437268 147.766179338158, 169.61398638297703 157.11513968600974 C161.7214759415814 166.46410003386148, 151.98127528845626 173.65470316012474, 140.85334287951878 179.37148386040732 C129.7254104705813 185.0882645606899, 115.38734838348081 190.51497939383663, 102.84639192935214 191.4158238877052 C90.30543547522346 192.31666838157375, 77.32595038714949 189.024667358239, 65.60760415474675 184.7765508236187 C53.88925792234402 180.5284342889984, 41.77479304552664 173.8599016958874, 32.53631453493575 165.92712467998336 C23.297836024344853 157.99434766407933, 15.832150430884113 148.21649744079184, 10.176733091201385 137.17988872819453 C4.521315751518656 126.14328001559721, -0.9618912490976541 112.44228910851099, -1.3961895031606275 99.7074724043995 C-1.830487757223601 86.972655700288, 2.919321608548503 72.34203049128178, 7.570943566823544 60.77098850352559 C12.222565525098585 49.199946515769405, 17.867791480351883 39.2687583583256, 26.51354224648962 30.281220477862405 C35.15929301262736 21.29368259739921, 50.53628042480395 11.446761656192361, 59.44544816364996 6.845761220746425 C68.35461590249596 2.24476078530049, 76.4222171290886 3.1170756614303343, 79.96854867956569 2.675217865186795 C83.51488023004278 2.233360068943256, 80.65338458524263 2.9363477742493487, 80.72343746651251 4.1946144432851895" stroke="none" stroke-width="0" fill="#000"></path><path d="M95.5409500513719 -0.8889418958267328 C107.20677116428459 -2.1037864889085087, 121.36732798510982 3.643976013796032, 132.89080347822534 8.843068099620623 C144.41427897134085 14.042160185445216, 156.06980061224783 21.49042636151828, 164.68180301006493 30.305610619120813 C173.29380540788202 39.120794876723345, 180.2457983061591 50.03130240932637, 184.56281786512784 61.7341736452358 C188.8798374240966 73.43704488114523, 191.00172426059902 87.94252373331719, 190.58392036387744 100.52283803457736 C190.16611646715586 113.10315233583754, 187.6464329840468 125.86389386680746, 182.05599448479842 137.2160594527968 C176.46555598555003 148.56822503878612, 166.64205669111456 160.50707002848876, 157.04128936838705 168.6358315505134 C147.44052204565955 176.76459307253802, 136.15960573671538 182.46130612574473, 124.45139054843335 185.98862858494465 C112.74317536015133 189.51595104414457, 99.25881234901567 190.8727913282173, 86.7919982386949 189.79976630571298 C74.32518412837413 188.72674128320867, 60.771906943798136 185.5269978370299, 49.650505886508775 179.55047844991878 C38.52910482921941 173.57395906280766, 27.68513172497333 163.5723727705139, 20.063591894958734 153.9406499830462 C12.442052064944136 144.3089271955785, 7.172202797242818 133.51452181293283, 3.921266906421181 121.76014172511259 C0.6703310155995439 110.00576163729234, -0.8970425357119776 95.84019125543229, 0.5579765500289113 83.41436945612472 C2.0129956357698005 70.98854765681715, 6.1610230665790455 58.02301814050853, 12.651381420866514 47.20521092926713 C19.141739775153983 36.38740371802573, 29.32682766489252 26.042010351913323, 39.50012667575372 18.50752618867631 C49.67342568661492 10.973042025439295, 61.94604685299358 4.985518321261466, 73.69117548603371 1.9983059498450473 C85.43630411907384 -0.9889064215713717, 102.03325067446633 0.16155923487040508, 109.9708984739945 0.5842519601777951 C117.90854627352266 1.0069446854851851, 121.83020318570615 2.764700610111606, 121.31706228320267 4.534462301689388 M139.50248498709823 9.998626714069417 C150.570913524492 14.420183275051315, 161.6764410364543 25.67196591048048, 169.64791765502397 35.74591568642207 C177.61939427359366 45.819865462363666, 183.92976149924033 58.35431211087954, 187.33134469851638 70.44232536971899 C190.73292789779242 82.53033862855844, 191.67382254134404 96.26517719299065, 190.05741685068023 108.27399523945877 C188.44101116001642 120.28281328592689, 183.64589203426164 131.97040702924005, 177.63291055453345 142.49523364852774 C171.61992907480527 153.02006026781544, 163.90893042797285 163.85825335868316, 153.97952797231122 171.422954955185 C144.0501255166496 178.98765655168683, 130.39592892882303 184.62689986686985, 118.05649582056367 187.88344322753878 C105.71706271230431 191.1399865882077, 92.08826950083042 193.1195705743476, 79.94292932275505 190.96221511919856 C67.79758914467968 188.80485966404953, 55.91721551510014 181.87588738313684, 45.1844547521114 174.93931049664454 C34.45169398912266 168.00273361015223, 22.52201388104735 159.3136184901748, 15.546364744822597 149.3427538002448 C8.570715608597844 139.37188911031478, 5.521069416981019 127.51419417347162, 3.3305599347628743 115.1141223570645 C1.1400504525447297 102.71405054065738, -0.049442783233795584 87.14886802376876, 2.4033078515137305 74.94232290180204 C4.856058486261256 62.73577777983534, 10.998004595614582 52.13999305815847, 18.04706374324803 41.87485162526425 C25.09612289088148 31.60971019237003, 34.111101386032736 20.19433352771588, 44.69766273731443 13.35147430443675 C55.284224088596126 6.508615081157618, 69.0018620036671 2.3658412191702025, 81.56643185093819 0.817696285589463 C94.13100169820927 -0.7304486479912764, 110.22562121225167 2.212896852341295, 120.085081820941 4.062604702952314 C129.94454242963033 5.912312553563332, 137.41399231716764 10.732811136667664, 140.72319550307418 11.915943389255574 C144.03239868898072 13.099075641843484, 141.02057487757185 10.107243716220209, 139.9403009363803 11.161398218479775" stroke="#fff" stroke-width="1" fill="none"></path></g><g transform="translate(68.44246404002592 94.12196002783435) rotate(0 14.794281637291022 2.3861744576275896)"><path d="M1.2887974884361029 -0.45643570087850094 L28.98084616846321 0.8875705394893885 L29.506074966852644 2.9792465111524704 L1.1538515593856573 6.340972020319188" stroke="none" stroke-width="0" fill="#000"></path><path d="M-1.4171114768832922 -1.3881006333976984 C7.7812071338693105 -1.1864843743716627, 16.121289431755702 -0.6488311069880872, 29.19695883056996 0.8618830945342779 M0.40439250599592924 0.430656929500401 C9.05634369462407 0.19865330175572707, 18.351997390271254 0.054078510562718646, 29.53941542561082 -0.41581768821924925 M29.39535528985436 -0.21838059666295512 C29.269625791762717 1.8017072975487947, 29.293086362100926 2.773690835785645, 29.884409834935276 4.8047697183554225 M29.704083066916557 -0.2338116947019892 C29.365347660658507 1.1771787029095255, 29.542085438738454 2.0441555223991057, 29.51615022550706 4.590402551464095 M29.244641652320603 3.3317207349748257 C22.3714048757801 5.260901954898789, 16.53946791918589 4.006902542839005, 0.45382128097116947 3.179402674576724 M29.810009038996974 4.180842990084076 C21.768662780763165 4.489987293264233, 14.431993150642151 5.996945628902279, -0.29597741831094027 5.64638962785759 M-0.17830961266513373 4.9975395107804115 C-0.2543522212869948 2.5790782848536233, -0.3874925420104547 1.3395020603483758, -0.07796509318579231 0.02134139883292757 M-0.19827446513977806 4.811391697239117 C0.017768493754748926 2.915566148465478, -0.08846190146186617 1.2275962621401162, -0.16459566839783607 -0.19103511516573377" stroke="#fff" stroke-width="2" fill="none"></path></g><g transform="translate(72.5784997665794 64.53339675325287) rotate(0 9.862854424860643 14.476125042940652)"><path d="M0 0 C0 0, 0 0, 0 0 M0 0 C0 0, 0 0, 0 0 M1.3270503931771622 11.029707648276865 C3.6692926275642868 7.378985677955231, 5.279035338397293 5.635327339982945, 11.599016934585702 -0.15493971602174028 M-0.01960507174025905 11.423760619431317 C2.908205701753071 8.608447812334505, 7.119579634488243 4.223770963960197, 10.326960997980965 -0.36705556334110484 M0.8621947450748895 24.96289669693923 C5.101169697940981 15.954559417043903, 12.639465690547143 11.29588343026398, 19.358734110237982 0.6315550735930184 M-0.23523348828784485 25.004644044390975 C8.287769487983962 15.265927158555806, 15.166273662413447 6.990312488246065, 19.81186024179491 1.483051458072124 M2.3873424218311605 31.44609008752674 C7.16568809661822 27.556884307149264, 15.242266697762824 22.585409424603696, 18.849609820142305 13.673126458678183 M3.3277772940039334 33.17780473944664 C7.754328307939353 27.886938277044745, 12.190449081714124 22.430857914521603, 21.474020955122924 12.623023108135698 M15.12197947379063 32.009836120491904 C15.772880814468271 30.67063949368861, 18.255103170448493 28.063047755738026, 20.007673016821848 25.52187197038096 M14.53955282101269 32.69287987654848 C16.097358273451697 30.33857847082301, 17.479486718985296 28.287189617925158, 21.22229688482161 24.630604186906783" stroke="#000" stroke-width="1" fill="none"></path><path d="M0.21003111317985068 -0.6024844521995356 C7.742310559806669 -0.4012590909133272, 14.463351192343971 -0.10256870941073487, 19.410947098514452 -1.1235364523184983 M0.7860327660193858 0.18667608277297276 C5.890923193998889 0.5968951888705554, 11.438048514886928 0.926915352706166, 19.977550413344094 -0.31024644925349487 M18.01401740125635 -1.0579088535159826 C21.145517301290333 7.13264941085583, 20.15532518598348 17.81970769048643, 19.979293106117037 29.717890562599823 M20.109514889300552 0.7013365281745791 C19.710234139483642 7.0126882315079655, 18.843665901940536 13.022796152797895, 18.86952087003061 29.90228243462585 M19.193159770207348 28.81940582285679 C14.087825892056681 29.420712645404457, 11.446871856276267 30.091874922203825, -0.1731110692378235 28.518095648865447 M20.091220889688337 29.909936142034798 C13.576099821577733 29.30721747743124, 8.85989791256881 29.778148192470425, 0.407787115911856 28.959261130159753 M-0.7074448559433222 27.881608845776245 C-0.811387305008263 22.099941161069367, 0.7345266893040234 14.729934624433774, -0.536194572225213 1.3518041167408228 M-0.752895007841289 27.957326579017863 C0.23296638278009815 18.965723278288657, 0.5796378150367968 9.101037816609747, 0.19175185728818178 0.05390315782278776" stroke="#fff" stroke-width="2" fill="none"></path></g><g transform="translate(76.60627707655635 44.04137645097512) rotate(312.38045120460623 17.498612689268896 5.944948156214991)"><path d="M0 0 C0 0, 0 0, 0 0 M0 0 C0 0, 0 0, 0 0 M1.6990771704446184 10.73427312564808 C1.5826442678992994 9.98620226489843, 4.73422084831241 4.394216288366582, 10.794510203552377 0.7006465743377568 M0.20943166474808328 11.256067648201762 C4.591269089774317 7.3284457953944635, 7.894101989969578 2.878174087378885, 10.018593101900947 -0.7937672418460487 M10.013588888252995 11.42801435138688 C13.709093332784063 6.5385604324718365, 17.319649864739453 3.0826757971283465, 22.067949838841223 -0.19610750021641232 M10.14455979471924 11.924640383530711 C15.611532946908582 7.664380058103257, 18.4698982898284 2.580157450946607, 20.616847605163123 0.04797062409813435 M21.54983369932309 11.599900413551461 C23.702257859703117 8.813148621804139, 25.26533254211268 7.439817842745692, 30.30018311426679 0.03494146478019999 M21.43592342884079 12.23723396236552 C24.722371084223543 7.347432556832145, 28.664065230890916 4.670791836307524, 32.42351046413819 -0.8305528930143233 M31.697907975368935 11.791890319878119 C33.669781319919146 10.536170612676809, 35.75732232905174 6.612712124007019, 39.183467049613675 4.032885396693334 M31.495151218312593 12.320470453262212 C34.10320853085278 9.454495660864747, 34.923360843510984 7.60275240857528, 39.34311177949057 3.6436412840881047" stroke="#000" stroke-width="1" fill="none"></path><path d="M0.6226128842681646 -1.8534634914249182 C8.08949940236048 1.4686743655942363, 18.18790714542838 -1.1650072297312337, 33.48945661903385 -1.505790015682578 M0.39407162833958864 0.2315715802833438 C7.208963250439111 0.03470188910741823, 13.993754050089903 0.8602330439784052, 34.170933419736365 0.06085669528692961 M35.966522640373036 -0.17184262635602088 C34.26673207425514 4.079381049220451, 34.86479094264022 5.040260838191059, 34.992764185710485 12.939770230666952 M35.35022982576803 0.4672669063566368 C35.33308639448228 2.8814290714473216, 35.00892018489835 4.694707411367138, 34.79535437086851 12.333502775031596 M33.53408851743702 12.810474116056657 C27.92093366713257 11.496831700930077, 18.928435783991205 10.158159718641716, 1.4708545114845037 11.508020180910325 M35.08108826902721 12.035483126230037 C26.81873570587343 11.724848377576041, 19.099097261677162 12.516796845069099, -0.1544965310022235 12.187848304099834 M0.8766347247542567 11.783718986778887 C-0.7064657883135996 7.766869881517879, 0.8713470424695489 4.359380003304881, -1.1869575657738762 -0.5963071330943486 M-0.023473390315850162 11.912990950606016 C-0.5442135945652944 7.699586088119903, -0.07879029724782434 2.33517924252606, -0.449385987272638 -0.38415924021999565" stroke="#fff" stroke-width="2" fill="none"></path></g><g transform="translate(72.2603431722298 53.39791595099109) rotate(0 9.862854424860586 9.862854424860586)"><path d="M6.183482431262794 0.5533258363380185 C8.247056257753716 -0.3534268115253151, 11.196726641455633 -0.29524653815390434, 13.349633347919923 0.31717588914110095 C15.502540054384212 0.9295983164361062, 18.036673931888874 2.531704222968486, 19.100922670048533 4.22786040010805 C20.16517140820819 5.924016577247615, 20.14026312198175 8.508742477952955, 19.73512577687788 10.494112951978488 C19.32998843177401 12.479483426004021, 18.137532455150456 14.757644923853595, 16.6700985994253 16.14008324426125 C15.202664743700149 17.5225215646689, 13.103549748834448 18.59193778941721, 10.93052264252696 18.788742874424404 C8.757495536219471 18.9855479594316, 5.324258261024319 18.31995660454095, 3.631935961580375 17.320913754304428 C1.9396136621364306 16.321870904067907, 1.2156335347429186 14.788878733521639, 0.7765888458632944 12.794485773005285 C0.3375441569836702 10.80009281248893, -0.24113795863247312 7.3382572693459185, 0.9976678283026299 5.3545559912063085 C2.236473615237733 3.3708547130666986, 6.977341134362226 1.6209139999663904, 8.209423567473912 0.8922781041676249 C9.441506000585598 0.16364220836885923, 8.496141615199093 0.9006411668736595, 8.390162426972747 0.9827406164137145 M8.648838705527346 0.9806611917863943 C10.951150898994864 0.9305983860593594, 15.04010994149429 2.6395099166518596, 16.617688590034426 3.6931167639321503 C18.195267238574562 4.746723611212441, 17.761338488305714 5.569793870969375, 18.114310596768163 7.30230227546814 C18.467282705230613 9.034810679966906, 19.772654562629 12.35569175637578, 18.735521240809113 14.088167190924743 C17.698387918989226 15.820642625473706, 13.753131121550892 16.73995165451629, 11.891510665848852 17.697154882761915 C10.029890210146812 18.65435811100754, 9.264404982136844 20.29205510548033, 7.56579850659687 19.83138656039848 C5.867192031056898 19.370718015316633, 2.8388871543752723 16.83502760961977, 1.6998718126090147 14.933143612270817 C0.560856470842757 13.03125961492186, 0.5184642230933636 10.49714156046961, 0.7317064559993245 8.420082576304742 C0.9449486889052854 6.343023592139874, 1.5347597539236384 3.7400303422503214, 2.97932521004478 2.47078970728161 C4.423890666165922 1.2015490723128985, 8.312607121500106 1.0447820877092326, 9.399099192726174 0.8046387664924719 C10.485591263952243 0.5644954452757113, 9.443817646400262 1.0395474192566005, 9.49827763740119 1.029929779981046" stroke="none" stroke-width="0" fill="#000"></path><path d="M6.983403131370302 1.218409956392568 C9.138073413882045 0.3147119802222259, 12.765905402462842 -0.3292537413295671, 14.821400988427769 0.349699766654469 C16.876896574392696 1.028653274638505, 18.47499236917907 3.384468032658142, 19.316376647159867 5.292131004296785 C20.157760925140664 7.199793975935427, 20.62752127237361 9.835090029837382, 19.869706656312545 11.795677596486327 C19.11189204025148 13.756265163135271, 16.501058991169693 15.76701326505723, 14.769488950793473 17.055656404190454 C13.037918910417256 18.34429954332368, 11.449191198017347 19.456246904472902, 9.480286414055236 19.527536431285668 C7.511381630093125 19.598825958098434, 4.4742929214214255 18.78088749988761, 2.9560602470208073 17.483393565067054 C1.4378275726201888 16.1858996302465, 0.7078164114555914 13.923885489666334, 0.3708903676515245 11.742572822362332 C0.03396432384745757 9.56126015505833, -0.34541371970047385 6.4089854008965474, 0.9345039841964056 4.395517561243044 C2.214421688093285 2.382049721589541, 6.827753865559285 0.40704666491299435, 8.0503965910328 -0.33823421555868727 C9.273039316506317 -1.0835150960303688, 8.376203062482436 -0.19278430136164965, 8.270360337037499 -0.07616772158704599 M13.651639900555669 0.4456636937874183 C15.428701329222665 1.1821232404875608, 15.733420180029231 3.8820194912770027, 16.92395349524514 5.569143597795644 C18.11448681046105 7.2562677043142845, 21.129331280435498 8.709146852741561, 20.794839791851125 10.568408332899262 C20.460348303266752 12.427669813056962, 16.66138680771372 15.183247702753086, 14.917004563738894 16.72471247874185 C13.17262231976407 18.266177254730614, 12.020603808886376 19.66200708686531, 10.328546328002174 19.817196988831846 C8.636488847117972 19.972386890798383, 6.519532579691411 18.899018880207237, 4.764659678433685 17.65585189054106 C3.009786777175959 16.412684900874886, 0.35012567994545496 14.614850857806076, -0.20069107954418364 12.358195050834796 C-0.7515078390338222 10.101539243863517, 0.5980519403618253 6.0638915106373235, 1.4597591214958534 4.115917048713389 C2.3214663026298816 2.1679425867894553, 3.2159355597463373 1.1753669065405665, 4.969552007259985 0.6703482792911899 C6.723168454773632 0.16532965204181316, 10.834144316956035 0.9483084395450252, 11.981457806577737 1.0858052852171287 C13.128771296199439 1.2233021308892322, 11.529926436035051 1.2646207791765616, 11.853432944990201 1.495329353323811" stroke="#fff" stroke-width="2" fill="none"></path></g><g transform="translate(75.441909115734 56.57948189449439) rotate(0 6.363131887006887 6.363131887006887)"><path d="M9.703029518395986 0.4997285660378692 C10.783756549465194 1.0254002808990248, 10.440166275270267 2.427927488814171, 11.062527612008605 3.5057175388008006 C11.684888948746943 4.58350758878743, 13.54773531241603 5.792000087075892, 13.437197538826016 6.966468865957648 C13.326659765236002 8.140937644839404, 11.541403052780137 9.46338322654513, 10.399300970468525 10.552530212091334 C9.257198888156914 11.641677197637538, 7.899123232665649 13.331850429380589, 6.584585044956343 13.501350779234876 C5.270046857247038 13.670851129089163, 3.6070407242887628 12.74274812310076, 2.5120718442126897 11.569532311217053 C1.4171029641366164 10.396316499333345, 0.31536027752979656 7.788518665745341, 0.014771764499903917 6.462055907932628 C-0.28581674852998873 5.135593150119915, 0.05959380294523475 4.607964158124587, 0.7085407660333338 3.6107557643407744 C1.357487729121433 2.6135473705569616, 2.588878322974665 1.0811633735864266, 3.9084535430284983 0.4788055452297524 C5.228028763082332 -0.12355228312692179, 7.589356708135275 -0.2036911743055505, 8.625992086356336 -0.003391205799270658 C9.662627464577396 0.1969087627070092, 10.074586035680515 1.4225854107265345, 10.128265812354861 1.6806053562674315 M2.891386435057022 -0.9320076640787711 C4.063506681723176 -1.410135546556588, 7.953331069486508 -0.1090900616987106, 9.474220177148382 0.46057730250641704 C10.995109284810257 1.0302446667115448, 11.590753157807345 1.417143304497193, 12.016721081028269 2.4859965211519945 C12.442689004249193 3.554849737806796, 12.177844814690754 5.469785796291971, 12.03002771647392 6.873696602435226 C11.882210618257087 8.277607408578481, 11.975167576965495 9.82417243113326, 11.129818491727265 10.909461358011525 C10.284469406489036 11.99475028488979, 8.486307828893043 13.545028795659608, 6.957933205044547 13.385430163704813 C5.4295585811960505 13.225831531750018, 2.914229399013082 10.936198619588165, 1.9595707486362866 9.951869566282756 C1.0049120982594912 8.967540512977347, 1.582241482473084 8.593123505781518, 1.2299813027837754 7.479455843872358 C0.8777211230944668 6.3657881819631985, -0.7998158995033208 4.306874521819635, -0.15399032949956482 3.269863594827797 C0.49183524050419114 2.2328526678359593, 4.6463859647774575 1.8353355711859436, 5.104934722806311 1.257390281921329 C5.563483480835164 0.6794449926567144, 2.504073959013558 -0.31363732987256787, 2.597302218673557 -0.19780814075989017" stroke="none" stroke-width="0" fill="#000"></path><path d="M8.237920073592361 1.5658851759984715 C9.38639664766152 1.989456502259684, 10.324559003807021 3.097594735554094, 11.160967021690096 4.134053322316625 C11.997375039573171 5.170511909079155, 13.465264730572871 6.681106782882576, 13.256368180890808 7.784636696573657 C13.047471631208746 8.888166610264738, 11.129628579981581 9.965357125277691, 9.907587723597722 10.755232804463109 C8.685546867213862 11.545108483648526, 7.186554311662211 12.526096299557107, 5.924123042587653 12.523890771686165 C4.661691773513096 12.521685243815224, 3.3536442160195854 11.724232205666787, 2.333000109150375 10.741999637237459 C1.3123560022811651 9.75976706880813, 0.00343117298817161 7.966310634701399, -0.19974159862760743 6.6304953611101975 C-0.4029143702433865 5.294680087518996, 0.2254239104993001 3.6361862242246077, 1.113963479455701 2.7271079956902526 C2.002503048412102 1.8180297671558976, 3.734039285941474 1.355742563056317, 5.131495815110798 1.1760259899040664 C6.528952344280121 0.996309416751816, 8.504590765834209 1.3266799147863804, 9.498702654471643 1.6488085567767499 C10.492814543109077 1.9709371987671194, 10.971894537404427 3.0814825121088334, 11.096167146935397 3.1087978418462834 M3.168606829991818 -0.21850490309546622 C4.292061090205111 -0.6758362042940125, 5.8627800506366645 -0.5376053881342693, 7.344406924140103 -0.27683606264139815 C8.826033797643543 -0.016066737148526966, 11.232865985056636 -0.026573621401966507, 12.058368071012453 1.346111049861761 C12.88387015696827 2.7187957211254883, 12.382943438442046 6.530163402717156, 12.297419439875004 7.959271964940967 C12.211895441307961 9.388380527164779, 12.634931535949443 9.318129205768203, 11.545224079610195 9.920762423204632 C10.455516623270947 10.523395640641061, 7.483669621819162 11.290098164964254, 5.759174701839517 11.57507126955954 C4.034679781859872 11.860044374154826, 2.1094543604210325 12.130736857506625, 1.1982545597323218 11.630601050776345 C0.2870547590436109 11.130465244046066, 0.33246109896816045 9.856623104773753, 0.2919758977072515 8.574256429177865 C0.2514906964463426 7.291889753581977, 0.3739984670041617 5.278198248286431, 0.9553433521668682 3.9364009972010168 C1.5366882373295745 2.5946037461156024, 3.093998972496114 1.269437887868611, 3.78004520868349 0.523472922665376 C4.466091444870866 -0.22249204253785881, 5.025483361340795 -0.5492514579165434, 5.0716207692911235 -0.5393887940183921" stroke="#fff" stroke-width="2" fill="none"></path></g><g transform="translate(101.3624549597082 40.96675597513308) rotate(37.519113820477294 14.326263341342269 5.113558305799501)"><path d="M0 0 C0 0, 0 0, 0 0 M0 0 C0 0, 0 0, 0 0 M-0.03022838565530339 11.445676645346804 C3.184528237482967 7.399838706120569, 6.566051931916524 3.6496057219752815, 10.245780060672146 0.9479196027002992 M0.38770474009206435 11.995589596534966 C4.933923594046519 6.824875740001116, 8.63578603199031 3.3209606299385506, 10.280475161409882 0.21512731393685058 M11.278970719500297 11.694292508808571 C15.065546637276611 6.681506636661156, 17.949793359662607 3.3706736023274937, 22.6826184594984 -1.5271197576843674 M10.673763526555934 11.737881891473803 C15.040224321980883 8.031854048111962, 18.566433825314274 3.896817634120609, 21.360796118665377 -0.21333410854679613 M21.156640203434772 9.97656240733939 C25.46971551032951 7.8700580090886865, 26.891080269397904 4.833224489053813, 29.379994849736757 2.1874202975478685 M21.724550981817565 11.797745723143619 C24.52374885798192 8.954758917508835, 26.497188016497674 6.34139099005319, 30.85915408704146 1.482964232837475 M0.21917355367791647 10.417641275091267 C0.21917355367791647 10.417641275091267, 0.21917355367791647 10.417641275091267, 0.21917355367791647 10.417641275091267 M0.21917355367791647 10.417641275091267 C0.21917355367791647 10.417641275091267, 0.21917355367791647 10.417641275091267, 0.21917355367791647 10.417641275091267 M11.922587065907416 9.47971511742493 C8.735143813114842 6.835228244242726, 3.9360202292831303 4.24699405804809, -0.2200498003443122 -0.8630492488432293 M11.690573733808694 9.964161379993167 C8.44093044639078 6.878081234970276, 5.579961592172123 3.9063718594143633, 0.31903550513783696 0.5237316799771423 M25.63331823292541 10.972303255157785 C19.76352577333532 6.718403013927086, 17.10499227252139 2.0161699449380253, 10.632754425755715 0.8381738376200918 M24.251437771500825 10.220549828814583 C20.677056889271853 8.221435023757946, 18.280335727755766 5.416385564143119, 11.774671118757702 -0.9011382635354277 M32.15585349992784 6.241129167866594 C30.727724547421847 4.450416796391287, 29.358641160021126 2.954642105998246, 24.45404409682617 -0.4996889083410476 M31.659224165407288 6.446522526465989 C29.057613171092406 3.5204820268513872, 26.380391833491874 1.4876847419116865, 24.017507882046107 -0.5393125567349468" stroke="#0000" stroke-width="1" fill="none"></path><path d="M-1.383394142612815 -1.8186580631881952 C7.200626787571677 -1.7672064704397301, 13.320149197858708 -1.5809268755415062, 30.58701132282085 -0.4919359777122736 M0.7887374712154269 -0.8535269601270556 C10.515024296481736 0.7008658089083661, 22.333164263532712 -0.0034805200654040025, 29.254211874189146 -0.05412087868899107 M28.78472912107591 -0.17686204550855844 C28.944655482188807 2.1127965401978965, 29.597934426396986 4.8379016987133685, 28.874265773799106 10.094538105812632 M28.42635744475498 0.031698786650503186 C28.87487188434896 3.251234725632335, 29.206977035879166 6.794373267158407, 28.172825492516417 9.785686329937182 M30.588778540933795 11.040566163881692 C18.548907174868816 10.584266207137611, 11.815167171718876 10.597911677279976, -1.9029547777026892 8.697042125090036 M28.93919700521446 10.090255455858085 C17.08977931089835 10.147925813197725, 5.863892004460659 10.84517364621126, 0.3373099220916629 10.514365898258063 M-0.17656820142361584 10.382449798844931 C-0.41102252203791534 6.991676243650941, -0.8702971407269297 4.8158048589773745, 0.9038549691187532 -0.9416740723186309 M0.5063681385543272 10.314831045910132 C0.02872955982641963 7.191505725314836, 0.18436268223144575 3.956612453932712, 0.4515029124026869 -0.5111263885316792" stroke="#fff" stroke-width="2" fill="none"></path></g><g transform="translate(99.30365369200968 31.12695434646662) rotate(0 6.363131887006887 6.363131887006887)"><path d="M4.139711895919957 1.3332598427745221 C5.08098100872528 0.8751840561254784, 6.687458359725864 -0.10088087620865305, 7.790633305094031 0.16324882508946548 C8.893808250462198 0.427378526387584, 9.969983695184565 1.6999545880295936, 10.75876156812896 2.9180380505632333 C11.547539441073356 4.136121513096873, 12.526833039049542 6.178195212396045, 12.523300542760401 7.471749600291303 C12.51976804647126 8.765303988186561, 11.720734386148328 9.817494086781508, 10.73756659039411 10.67936437793478 C9.754398794639892 11.541234669088052, 7.960214924798667 12.436889633185702, 6.624293768235096 12.642971347210931 C5.288372611671525 12.84905306123616, 3.630344874347359 12.816040322475988, 2.7220396510126834 11.915854662086158 C1.8137344276780079 11.015669001696327, 1.4667797811548184 8.62034820575797, 1.1744624282270415 7.241857384871954 C0.8821450752992646 5.863366563985938, 0.2463810134283938 4.745106764602397, 0.9681355334460218 3.6449097367700594 C1.6898900534636496 2.5447127089377215, 4.716654267065017 1.3648826900204876, 5.5049895483328095 0.6406752178779254 C6.293324829600602 -0.08353225426463673, 5.872332556394309 -0.572239933591073, 5.698147221052772 -0.700335096085313 M4.742686301511045 0.5662195511115602 C5.905547429409757 0.3067541039090281, 6.706994011281699 -0.2752183355695097, 8.141761252990259 0.442959434812245 C9.576528494698819 1.1611372051939997, 12.810556169650342 3.716663251053533, 13.351289751762405 4.875286173402088 C13.892023333874468 6.033909095750643, 12.206681532512118 6.4782516720532595, 11.386162745662638 7.394696968903574 C10.565643958813158 8.311142265753888, 9.435224315152208 9.487332978456449, 8.428177030665532 10.373957954503975 C7.421129746178855 11.260582930551502, 6.4003529200922635 12.641444883438776, 5.343879038742577 12.71444682518873 C4.287405157392891 12.787448766938684, 2.932039410196759 11.854577106039393, 2.089333742567417 10.811969605003704 C1.2466280749380756 9.769362103968014, 0.3995044654148135 7.660213219068466, 0.28764503296652855 6.458801818974596 C0.1757856005182436 5.257390418880726, 0.7987578920122393 4.64821068579611, 1.4181771478777074 3.603501204440483 C2.0375964037431755 2.5587917230848554, 3.4594740149651155 0.9781482910589645, 4.004160568159337 0.19054493084083113 C4.548847121353559 -0.5970584293773022, 4.535318201493 -1.4151095703737535, 4.686296467043036 -1.1221189568683174" stroke="none" stroke-width="0" fill="#000"></path><path d="M4.794964550470402 -0.4644562022376775 C5.752111245503144 -1.0570296519256792, 6.581501559059331 0.08528822815930281, 7.653577978961772 0.4944042023315669 C8.725654398864215 0.903520176503831, 10.548795848335347 0.7653259918194972, 11.227423069885052 1.990239642795907 C11.906050291434758 3.2151532937723166, 11.734096988266502 6.298706682290522, 11.725341308260008 7.843886108190026 C11.716585628253513 9.38906553408953, 11.9967397170246 10.38435741963962, 11.174888989846089 11.261316198192931 C10.353038262667578 12.138274976746242, 8.203893371068574 13.134100404605324, 6.79423694518894 13.105638779509894 C5.3845805193093055 13.077177154414464, 3.8040667802235877 12.025214926171245, 2.7169504345682833 11.09054644762035 C1.6298340889129792 10.155877969069454, 0.5200317476822426 8.805593768091942, 0.27153887125711496 7.497627908204526 C0.023045994831987354 6.189662048317111, 0.40584715387395354 4.4672645877636885, 1.2259931760175178 3.2427512882958585 C2.046139198161082 2.0182379888280284, 4.514561466386954 0.7535892532592371, 5.192415004118501 0.1505481113975442 C5.870268541850047 -0.4524930304641487, 5.387639770480437 -0.5170854446020129, 5.293114402406795 -0.3754955628742991 M6.2547071405543795 0.879520434322111 C7.42044452095389 0.8500026317215162, 9.357623087998554 1.913482651206758, 10.460957231810196 2.463483579004013 C11.564291375621838 3.0134845068012677, 12.629403947562404 3.317740213915234, 12.874712003424236 4.179526001105641 C13.120020059286068 5.041311788296048, 12.439382281624635 6.527856532114702, 11.93280556698119 7.634198302146455 C11.426228852337744 8.740540072178208, 11.15941099557107 9.791975292084704, 9.835251715563562 10.817576621296158 C8.511092435556053 11.843177950507613, 5.568538888540856 13.826333640101304, 3.987849886936136 13.787806277415186 C2.4071608853314155 13.749278914729068, 0.8478422010178972 11.873420075636393, 0.3511177059352377 10.586412445179452 C-0.1456067891474217 9.29940481472251, 0.6675812477802854 7.732644180615391, 1.0075029164401794 6.065760494673537 C1.3474245851000735 4.398876808731683, 1.8011228039271878 1.6248785879645404, 2.390647717894602 0.5851103295283284 C2.980172631862016 -0.4546579289078836, 3.888139284347269 -0.27684527298991163, 4.544652400244663 -0.17284905594373523 C5.201165516142058 -0.06885283889755882, 6.065990436331456 0.8478664743593016, 6.329726413278968 1.209087631805387" stroke="#fff" stroke-width="2" fill="none"></path></g><g transform="translate(126.20399840580762 46.900643121377016) rotate(37.519113820477294 1.7337487777327851 8.5652906928905)"><path d="M-0.29816128872334957 -0.5435679648071527 L4.898268349395269 0.7369937803596258 L2.8942692949633537 18.829218683157976 L-1.0790183153003454 15.837483522807176" stroke="none" stroke-width="0" fill="#000"></path><path d="M0.05823522625100741 0.31908790198444903 C0.9364411265702992 0.30947129877176205, 1.4201498019620717 0.30807360130255923, 3.645413282049966 -0.1279074218942804 M-0.17259282186550717 0.12827224723493175 C0.9664957523465343 0.16677643431480488, 2.174836163031971 0.017784243338112002, 3.4824943340400956 -0.10399101042056737 M2.502047840284365 -1.1895996334996246 C2.051731669168542 6.0908657849790195, 4.840499531230759 13.752893169087134, 3.740350388241402 18.01870291940436 M3.6282239204818048 -0.017943921673848395 C4.236193126822622 4.559937141120369, 4.162125554299584 9.057226988299194, 4.092201152799984 17.23551492490446 M3.2948940226244288 17.088573883597906 C2.5833856989086055 17.250232638167393, 1.6332947894932586 17.02622681983592, 0.09040634614151871 16.942892674060342 M3.437039104836264 17.08967457581252 C2.598672685421951 17.22510220843316, 1.5628185673228887 17.25508043872264, -0.1668868963070243 17.02353060703026 M0.982172452025909 16.97996984098737 C0.027281345806403623 11.796554042158505, -0.8622808731033836 4.499661978924367, 1.5474790054582828 -1.2541183597899415 M-0.5001944966617591 17.79649628430669 C0.6969613898835827 13.98248039288878, 0.41512480978269933 9.203270723511727, -0.8351796626149088 0.15273921270606716" stroke="#fff" stroke-width="2" fill="none"></path></g><g><g transform="translate(133.59611585679227 53.34418950646841) rotate(0 1.7274557350285704 2.1949389817518465)"><path d="M-0.5530557397753 1.046385306492448 C0.10455286670751718 1.3368359149852493, 3.2654079655323103 2.4349395922616606, 4.00796720983251 2.577628283640204 M1.357451267503202 0.5501336470618843 C1.8222848212001457 0.9260112286591624, 2.626136866598196 3.4997229436457635, 2.884114837104222 3.8397443164417724" stroke="#fff" stroke-width="2" fill="none"></path></g></g><g><g transform="translate(127.73569823272396 60.49999295786597) rotate(0 2.156677172024615 1.827515404759822)"><path d="M0.5363978382200003 -1.1399512823671103 C1.4484978692633643 -0.6939457117161059, 4.218348787179954 2.641341345687259, 4.954486370103201 3.2040137101615054 M-0.641132026053965 0.8759703490510584 C0.21180095009781275 1.4890692479395964, 3.4693716196108535 4.424485617619801, 4.327556556517026 4.794982091886757" stroke="#fff" stroke-width="2" fill="none"></path></g></g><g><g transform="translate(131.0947366787534 63.586783623995416) rotate(0 0.5975357241220536 2.3571147774870838)"><path d="M0.6592053238302469 -1.0998133901506661 C0.4086784735592026 -0.1636082514417878, -0.32051994191019784 3.570856914275531, -0.47175060382674994 4.833370112676792 M-0.45385061049833886 0.9371806346811353 C-0.43821081488486935 2.053549264758307, 1.226160875079194 5.230573809218797, 1.6668220520708372 5.814042945124827" stroke="#fff" stroke-width="2" fill="none"></path></g></g><g><g transform="translate(136.77008767317443 56.42302052116975) rotate(0 2.0255504367955837 -0.3851643078191671)"><path d="M-0.7425869230180979 0.986638993397355 C-0.08589536975793688 0.6345067923213492, 4.0820749024067 -1.312884037720436, 4.793687796609244 -1.7569676090356996 M1.0684162130579353 0.45902051959186796 C1.5318512605903283 0.2621003334294212, 3.2615539453316407 -0.18000300791340498, 4.082338731938741 -0.3276683188927463" stroke="#fff" stroke-width="2" fill="none"></path></g></g><g><g transform="translate(141.36951549473974 54.67116747837326) rotate(0 0.5659964461046343 4.498019137628603)"><path d="M0.026618415489792824 0.897534107789397 C0.3480236758626774 2.1887139739388775, 2.064553886074461 7.369916733500636, 2.5505385379268377 8.6729027062175 M-1.4185456457175314 0.3231355690397324 C-1.3035657881051526 1.1536987828197134, 0.9991164290903881 5.668430655316537, 1.6386745528465658 6.706478896409751" stroke="#fff" stroke-width="2" fill="none"></path></g></g><g><g transform="translate(131.51032919316754 68.39463823462916) rotate(0 3.8539042242036885 -0.0018933238935971985)"><path d="M-0.7786439951509236 0.4757100697606802 C0.6788640841896805 0.3899118015137585, 6.910275617269412 -0.5771593809290371, 8.486452443558258 -0.803873710577326 M1.0134291780553757 -0.32014608895406127 C2.318111145483252 -0.1651924964631824, 6.284568623611316 0.6705497491383412, 7.433815124272835 0.8000870627901088" stroke="#fff" stroke-width="2" fill="none"></path></g></g><g transform="translate(26.588235294117567 102.87658982511925) rotate(0 78.7171682626539 22.87052861685214)"><text x="0" y="37" font-family="Cascadia" font-size="38.006332491098725px" fill="#fff" text-anchor="start" style="white-space: pre;" direction="ltr">Gitproc</text></g></svg>