<svg version="1.1" xmlns="http://www.w3.org/2000/svg" viewBox="0 0 557.5348837209303 211">
  <!-- svg-source:excalidraw -->
  <defs>
    <style>
      @font-face {
        font-family: "Virgil";
        src: url("https://excalidraw.com/FG_Virgil.woff2");
      }
      @font-face {
        font-family: "Cascadia";
        src: url("https://excalidraw.com/Cascadia.woff2");
      }
    </style>
  </defs>
  <g transform="translate(224 37) rotate(0 161.76744186046517 47)"><text x="0" y="75" font-family="Cascadia" font-size="78.10478091728096px" fill="#000000" text-anchor="start" style="white-space: pre;" direction="ltr">Gitproc</text></g><g transform="translate(234.5 137) rotate(0 148.5 14.290794979079493)"><text x="0" y="22" font-family="Helvetica" font-size="24.85355648535565px" fill="#000000" text-anchor="start" style="white-space: pre;" direction="ltr">Process automation via Git</text></g><g transform="translate(10 10) rotate(0 95.5 95.5)"><path d="M91.67737857266411 -0.46476453805217943 C103.49178744201973 -2.4507742474723955, 117.41689309476992 0.7224657842312068, 129.23349224898408 5.397844984482703 C141.05009140319822 10.073224184734197, 153.6242298509052 18.926436471082845, 162.57697349794904 27.587510663456797 C171.52971714499287 36.24858485583075, 178.15529871040806 46.19219917656368, 182.94995413124713 57.36429013872643 C187.7446095520862 68.53638110088919, 191.26884047610616 81.87364221602486, 191.34490602298337 94.6200564364333 C191.42097156986057 107.36647065684174, 188.4686802853202 122.07363810188389, 183.40634741251043 133.84277546117707 C178.34401453970065 145.61191282047025, 169.83625067198392 156.73675132313846, 160.97090878612468 165.23488059219238 C152.10556690026544 173.7330098612463, 141.6366660560743 180.45991178720183, 130.21429609735497 184.83155107550064 C118.79192613863566 189.20319036379945, 105.209728775344 191.8627527172329, 92.43668903380878 191.46471632198518 C79.66364929227355 191.06667992673746, 64.88509158971874 188.0431269973021, 53.57605764814358 182.44333270401432 C42.26702370656842 176.84353841072655, 32.71035130723247 167.34975275692855, 24.582485384357838 157.86595056225855 C16.4546194614832 148.38214836758854, 8.810828464959055 137.09329035786345, 4.80886211089576 125.54051953599429 C0.8068957568324651 113.98774871412513, -0.46127255836129666 100.88044125121331, 0.5706872599780723 88.54932563104357 C1.6026470783174414 76.21821001087383, 5.216371526655998 62.64940828314214, 11.000621020931973 51.553825814975866 C16.78487051520795 40.458243346809596, 25.569753478148314 29.866251174522876, 35.276184225633926 21.97583082204595 C44.98261497311954 14.085410469569023, 58.75989120558256 7.819678471491294, 69.23920550584563 4.2113037001143 C79.7185198061087 0.6029289287373061, 92.20574624709782 0.7556901783830388, 98.15207002721233 0.3255821937839869 C104.09839380732684 -0.10452579081506502, 105.05400189422923 0.008534989291961947, 104.9171481865327 1.6306557925199883 M79.02950015089444 0.8636903745709503 C90.59636861696139 -2.067657411100342, 105.8618153714678 0.6509902601576534, 118.37411304546836 3.9318369315200243 C130.88641071946893 7.212683602882395, 144.156234973072 13.266713740167173, 154.10328619489778 20.548770402745177 C164.05033741672355 27.83082706532318, 172.26708014360452 36.879789965718324, 178.0564203764231 47.62417690698805 C183.84576060924167 58.36856384825777, 187.14733006656428 72.40616790597869, 188.8393275918092 85.0150920503635 C190.5313251170541 97.62401619474832, 191.41262906269796 111.2610471673559, 188.2084055278926 123.27772177329693 C185.00418199308726 135.29439637923798, 177.50649682437268 147.766179338158, 169.61398638297703 157.11513968600974 C161.7214759415814 166.46410003386148, 151.98127528845626 173.65470316012474, 140.85334287951878 179.37148386040732 C129.7254104705813 185.0882645606899, 115.38734838348081 190.51497939383663, 102.84639192935214 191.4158238877052 C90.30543547522346 192.31666838157375, 77.32595038714949 189.024667358239, 65.60760415474675 184.7765508236187 C53.88925792234402 180.5284342889984, 41.77479304552664 173.8599016958874, 32.53631453493575 165.92712467998336 C23.297836024344853 157.99434766407933, 15.832150430884113 148.21649744079184, 10.176733091201385 137.17988872819453 C4.521315751518656 126.14328001559721, -0.9618912490976541 112.44228910851099, -1.3961895031606275 99.7074724043995 C-1.830487757223601 86.972655700288, 2.919321608548503 72.34203049128178, 7.570943566823544 60.77098850352559 C12.222565525098585 49.199946515769405, 17.867791480351883 39.2687583583256, 26.51354224648962 30.281220477862405 C35.15929301262736 21.29368259739921, 50.53628042480395 11.446761656192361, 59.44544816364996 6.845761220746425 C68.35461590249596 2.24476078530049, 76.4222171290886 3.1170756614303343, 79.96854867956569 2.675217865186795 C83.51488023004278 2.233360068943256, 80.65338458524263 2.9363477742493487, 80.72343746651251 4.1946144432851895" stroke="none" stroke-width="0" fill="#000"></path><path d="M95.5409500513719 -0.8889418958267328 C107.20677116428459 -2.1037864889085087, 121.36732798510982 3.643976013796032, 132.89080347822534 8.843068099620623 C144.41427897134085 14.042160185445216, 156.06980061224783 21.49042636151828, 164.68180301006493 30.305610619120813 C173.29380540788202 39.120794876723345, 180.2457983061591 50.03130240932637, 184.56281786512784 61.7341736452358 C188.8798374240966 73.43704488114523, 191.00172426059902 87.94252373331719, 190.58392036387744 100.52283803457736 C190.16611646715586 113.10315233583754, 187.6464329840468 125.86389386680746, 182.05599448479842 137.2160594527968 C176.46555598555003 148.56822503878612, 166.64205669111456 160.50707002848876, 157.04128936838705 168.6358315505134 C147.44052204565955 176.76459307253802, 136.15960573671538 182.46130612574473, 124.45139054843335 185.98862858494465 C112.74317536015133 189.51595104414457, 99.25881234901567 190.8727913282173, 86.7919982386949 189.79976630571298 C74.32518412837413 188.72674128320867, 60.771906943798136 185.5269978370299, 49.650505886508775 179.55047844991878 C38.52910482921941 173.57395906280766, 27.68513172497333 163.5723727705139, 20.063591894958734 153.9406499830462 C12.442052064944136 144.3089271955785, 7.172202797242818 133.51452181293283, 3.921266906421181 121.76014172511259 C0.6703310155995439 110.00576163729234, -0.8970425357119776 95.84019125543229, 0.5579765500289113 83.41436945612472 C2.0129956357698005 70.98854765681715, 6.1610230665790455 58.02301814050853, 12.651381420866514 47.20521092926713 C19.141739775153983 36.38740371802573, 29.32682766489252 26.042010351913323, 39.50012667575372 18.50752618867631 C49.67342568661492 10.973042025439295, 61.94604685299358 4.985518321261466, 73.69117548603371 1.9983059498450473 C85.43630411907384 -0.9889064215713717, 102.03325067446633 0.16155923487040508, 109.9708984739945 0.5842519601777951 C117.90854627352266 1.0069446854851851, 121.83020318570615 2.764700610111606, 121.31706228320267 4.534462301689388 M139.50248498709823 9.998626714069417 C150.570913524492 14.420183275051315, 161.6764410364543 25.67196591048048, 169.64791765502397 35.74591568642207 C177.61939427359366 45.819865462363666, 183.92976149924033 58.35431211087954, 187.33134469851638 70.44232536971899 C190.73292789779242 82.53033862855844, 191.67382254134404 96.26517719299065, 190.05741685068023 108.27399523945877 C188.44101116001642 120.28281328592689, 183.64589203426164 131.97040702924005, 177.63291055453345 142.49523364852774 C171.61992907480527 153.02006026781544, 163.90893042797285 163.85825335868316, 153.97952797231122 171.422954955185 C144.0501255166496 178.98765655168683, 130.39592892882303 184.62689986686985, 118.05649582056367 187.88344322753878 C105.71706271230431 191.1399865882077, 92.08826950083042 193.1195705743476, 79.94292932275505 190.96221511919856 C67.79758914467968 188.80485966404953, 55.91721551510014 181.87588738313684, 45.1844547521114 174.93931049664454 C34.45169398912266 168.00273361015223, 22.52201388104735 159.3136184901748, 15.546364744822597 149.3427538002448 C8.570715608597844 139.37188911031478, 5.521069416981019 127.51419417347162, 3.3305599347628743 115.1141223570645 C1.1400504525447297 102.71405054065738, -0.049442783233795584 87.14886802376876, 2.4033078515137305 74.94232290180204 C4.856058486261256 62.73577777983534, 10.998004595614582 52.13999305815847, 18.04706374324803 41.87485162526425 C25.09612289088148 31.60971019237003, 34.111101386032736 20.19433352771588, 44.69766273731443 13.35147430443675 C55.284224088596126 6.508615081157618, 69.0018620036671 2.3658412191702025, 81.56643185093819 0.817696285589463 C94.13100169820927 -0.7304486479912764, 110.22562121225167 2.212896852341295, 120.085081820941 4.062604702952314 C129.94454242963033 5.912312553563332, 137.41399231716764 10.732811136667664, 140.72319550307418 11.915943389255574 C144.03239868898072 13.099075641843484, 141.02057487757185 10.107243716220209, 139.9403009363803 11.161398218479775" stroke="#fff" stroke-width="1" fill="none"></path></g><g transform="translate(46.82051282051282 149.14102564102564) rotate(0 23.846153846153868 3.8461538461538396)"><path d="M1.2887974884361029 -0.45643570087850094 L47.08459058618894 0.8875705394893885 L47.60981938457837 5.899205288204996 L1.1538515593856573 9.260930797371714" stroke="none" stroke-width="0" fill="#000"></path><path d="M-1.4171114768832922 -1.3881006333976984 C13.157455456658065 -1.3462354194516175, 26.87378607733321 -0.8085821520680422, 47.30070324829569 0.8618830945342779 M0.40439250599592924 0.430656929500401 C14.450224236012094 0.2453297497274785, 29.1397584730473 0.10075495853447008, 47.64315984333655 -0.41581768821924925 M47.38088551980376 -0.35199663171974455 C47.178228504884174 2.90408081016861, 47.216043410894436 4.470771884259116, 48.169167790418676 7.744565144037958 M47.87850819922128 -0.3768692376951752 C47.3325177409615 1.8974347752877123, 47.61739242091206 3.294870833723013, 47.575588763261685 7.399037556651107 M47.34838607004633 6.251679512027351 C36.40373941740168 8.038170882300102, 26.500392584703313 6.784171470240318, 0.45382128097116947 6.09936145162925 M47.9137534567227 7.100801767136602 C35.44421663944828 7.561502143511392, 23.679356450286644 9.068460479149438, -0.29597741831094027 8.566348404910116 M-0.2874082405693251 8.055281016545786 C-0.4099774729603751 4.157085762574114, -0.624579617825264 2.159075580107474, -0.12566798796447398 0.034399120710217 M-0.31958857587037126 7.75523877666832 C0.028640135836142736 4.699453520588568, -0.14258726199085875 1.9787002874251698, -0.2653034278549823 -0.3079198340240574" stroke="#fff" stroke-width="2" fill="none"></path></g><g transform="translate(53.487179487179446 101.44871794871796) rotate(0 15.897435897435912 23.333333333333343)"><path d="M0 0 C0 0, 0 0, 0 0 M0 0 C0 0, 0 0, 0 0 M1.3270503931771622 11.029707648276865 C3.6692926275642868 7.378985677955231, 5.279035338397293 5.635327339982945, 11.599016934585702 -0.15493971602174028 M-0.01960507174025905 11.423760619431317 C2.908205701753071 8.608447812334505, 7.119579634488243 4.223770963960197, 10.326960997980965 -0.36705556334110484 M0.8621947450748895 24.96289669693923 C5.27553357525824 15.751723750784151, 12.991033021489587 10.889198509303364, 20.014793139228487 -0.1231545066297528 M-0.23523348828784485 25.004644044390975 C8.526662105520234 14.992907461626999, 15.648191968904245 6.437723716600853, 20.467919270785416 0.7283418778493527 M-1.549011752111884 35.97434756886338 C7.8080111177498 27.007975666163187, 20.397255758280473 16.845272339568723, 30.002613312980927 0.8430635948910599 M-0.6085768799391111 37.70606222078328 C7.503789016475827 28.281473188901842, 15.5783711215751 18.639821859927697, 32.627024447961546 -0.20703975565142585 M2.8129572355000185 46.799331214401434 C8.07922457508844 39.50036184430772, 17.088956236983517 29.631608063058312, 30.297938104306148 13.446244248164701 M1.6481039299441385 48.16541872651459 C9.050367393338213 38.67296860392502, 15.957335705969388 29.80454655852849, 32.72718584030567 11.663708681216347 M9.920549366649919 48.27770484875916 C17.23322305079669 42.6587217691615, 22.34684695055134 33.655816501326925, 30.628310662905513 23.220296972505842 M11.7392817465856 48.308416724056286 C17.075804383254887 41.538003916702316, 21.177002950129598 35.59867098040537, 32.42230768150353 25.250381717532967 M22.653500737787848 46.271951945264895 C24.045316426924053 45.67128813035146, 26.860134254030445 42.15880900678693, 31.5586377899505 36.42122515451876 M22.50938159663013 47.49688912113111 C24.05012539742019 44.933082330083266, 26.93573648233287 42.4741844340695, 31.495405742932835 36.14708356487346" stroke="#000" stroke-width="1" fill="none"></path><path d="M0.21295165084302425 -0.6108621563762426 C11.846732407951595 -0.36441544580918084, 22.657993862692003 -0.06157169628601797, 31.47573319903745 -1.1391595210880041 M0.7969627575948834 0.18927186261862516 C9.293541201581377 0.6282742387543505, 18.238503930541015 0.9628834194432085, 32.050215281426745 -0.31456050742417574 M30.083180346406834 -1.0579088535159826 C33.05442252569381 12.180808416257307, 32.064230410386955 27.916025701289385, 32.04845605126752 47.43230714338523 M32.17867783445104 0.7013365281745791 C31.638043829368886 10.760573122339949, 30.77147559182578 20.51856593446186, 30.938683815181093 47.61669901541126 M31.25491748086347 46.53197516935569 C23.70604676500156 47.23117138493139, 18.65582373895899 47.911666349054165, -0.17551822401583195 46.226475198442756 M32.165466375529604 47.63766959837329 C22.305759576626905 47.03264045667096, 14.269986379103603 47.51011958670064, 0.41345750261098146 46.67377520135295 M-0.7074448559433222 45.59602542656165 C-0.7429129115616282 36.03042046974104, 0.8030010827506582 24.876476660991717, -0.536194572225213 1.3518041167408228 M-0.752895007841289 45.67174315980327 C0.3465049410859745 30.536320325918506, 0.6931763733426731 14.527815331084035, 0.19175185728818178 0.05390315782278776" stroke="#fff" stroke-width="2" fill="none"></path></g><g transform="translate(59.97934989102214 68.41866750578896) rotate(312.38045120460623 28.205128205128176 9.582361064641077)"><path d="M0 0 C0 0, 0 0, 0 0 M0 0 C0 0, 0 0, 0 0 M1.6990771704446184 10.73427312564808 C1.5826442678992994 9.98620226489843, 4.73422084831241 4.394216288366582, 10.794510203552377 0.7006465743377568 M0.20943166474808328 11.256067648201762 C4.591269089774317 7.3284457953944635, 7.894101989969578 2.878174087378885, 10.018593101900947 -0.7937672418460487 M1.9534689560343228 20.33994199583345 C8.394654806893072 12.099281011946294, 14.719485430129156 5.695377596330843, 22.269892376193667 -0.2278869604528424 M2.11718258911713 20.960724536013238 C11.006325324171776 13.25743145879043, 16.644129292296753 4.526818112296414, 20.45601458409604 0.07721069494034083 M13.060193479702505 21.318132861170785 C17.097718354237394 16.284568573346515, 20.3725813766415 13.048245806537187, 29.902661509296692 0.06954795320175933 M12.917805641599628 22.114799797188358 C18.987322746763446 13.804192084642466, 25.818360368830223 8.268181836590587, 32.55682069663594 -1.0123199940413947 M22.902816738782093 21.484082789473824 C28.032278340476587 17.391958163801718, 33.36377182980263 8.491472375857622, 42.417455407414366 0.5844148889510876 M22.534168089588746 22.445137577444903 C28.690898510005468 15.587012041920929, 31.566930304031253 10.62712330482282, 42.707718552645076 -0.12330167942205605 M35.77443741912633 22.38455458362159 C40.14275916069419 13.403695477031153, 47.07562738056106 5.1137480356356075, 51.33179116039044 -0.6158423055486075 M35.0919797029221 21.468135689427523 C39.19155374267122 17.642676164070316, 41.92950004776894 13.519541315678085, 52.29692226345158 -0.7723664412797682 M45.958197610578964 21.571367091270332 C49.46520426526922 15.235361058632513, 57.30250224610545 8.916518103265352, 60.154375088116126 4.132033743472782 M44.97164209292782 21.549974553058092 C49.00200093138688 17.79426896569891, 51.79105750693575 12.106911583667237, 60.562233607931034 3.870643728921202" stroke="#000" stroke-width="1" fill="none"></path><path d="M0.6226128842681646 -1.8534634914249182 C13.367125006965706 1.5401813561717668, 28.743158354638833 -1.0935002391537032, 54.90248765075239 -1.505790015682578 M0.39407162833958864 0.2315715802833438 C11.502439767289419 0.02295360453904438, 22.580707083790518 0.8484847594100313, 55.583964451454904 0.06085669528692961 M57.97261761136506 -0.27698443262589967 C55.2328112226778 6.575347859513111, 56.19679204541809 8.124141362111907, 56.403065639314846 20.85696076493429 M56.97924641351613 0.7531638784076212 C56.951613784239925 4.6444296937891005, 56.4291066767655 7.567161281555746, 56.08487074950035 19.879748935834332 M54.94711954915556 20.08529993290881 C44.26329311303408 18.62327883761268, 30.20012364407568 17.28460685532432, 1.4708545114845037 18.78284599776248 M56.49411930074575 19.31030894308219 C43.459599313039575 19.153036068967204, 30.967793444290916 19.94498453646026, -0.1544965310022235 19.462674120951988 M1.413003147153726 18.993580271601985 C-1.1387164505984932 12.51902448787289, 1.404480199683746 7.026664003112098, -1.9131968294395005 -0.9611572892788708 M-0.037835569883410525 19.201947207759662 C-0.8771903509299914 12.410573146465634, -0.12699809262924458 3.7639572397526724, -0.724342529873003 -0.6192068373645638" stroke="#fff" stroke-width="2" fill="none"></path></g><g transform="translate(52.97435897435912 83.50000000000011) rotate(0 15.897435897435798 15.897435897435798)"><path d="M9.86703994503437 1.0301325838745026 C13.031879055587178 -0.426127977144352, 17.76676924353039 -0.4089383555977463, 21.155694711897933 0.5830458466981181 C24.544620180265476 1.5750300489939826, 28.433476319014364 4.200622886458833, 30.200592755239626 6.982037797649689 C31.967709191464888 9.763452708840545, 32.32269364755467 14.003013769685923, 31.75839332924951 17.271535313843255 C31.194093010944353 20.540056858000586, 29.228944221541717 24.33008598232405, 26.81479084540868 26.59316706259368 C24.400637469275644 28.856248142863308, 20.73779566115894 30.587144795455178, 17.273473072451292 30.850021795461032 C13.809150483743645 31.112898795466887, 8.75283754963342 29.948886626065402, 6.028855313162792 28.170429062628806 C3.304873076692165 26.39197149919221, 1.6579235840025248 23.433873910220655, 0.9295796536275311 20.179276414841464 C0.20123572325253747 16.924678919462274, -0.30068624287562096 11.823265307724547, 1.6587917309128297 8.642844090353666 C3.61826970470128 5.462422872982785, 10.678673960103968 2.3459997228805403, 12.686447496358236 1.0967491106161766 C14.694221032612504 -0.1525015016481872, 13.785452844269935 0.9680724594586501, 13.705432948438437 1.1473404167674826 M14.679988550521317 0.9806621675018476 C18.21059222913005 0.8528549084033319, 23.960059976002682 3.21857754250518, 26.528594856407665 5.102735572643505 C29.097129736812647 6.98689360278183, 29.512977219246217 9.279888437894359, 30.091197832951206 12.285610348331799 C30.669418446656195 15.29133225876924, 31.68090736079853 20.284466521320514, 29.99791853863761 23.13706703526815 C28.31492971647669 25.989667549215785, 23.06964189511843 28.001092524367557, 19.993264899985693 29.40121343201762 C16.916887904852956 30.801334339667683, 14.453522536586782 32.43999685151521, 11.539656567841195 31.537792481168538 C8.625790599095609 30.635588110821864, 4.2962134532832295 27.00926101745512, 2.510069087512175 23.987987209937582 C0.7239247217411207 20.966713402420044, 0.3857478327430597 16.760677482490653, 0.82279037321487 13.41014963606331 C1.2598329136866804 10.059621789635965, 2.6977478862588247 5.985738447016086, 5.132324330343037 3.8848201313735213 C7.56690077442725 1.7839018157309572, 13.697387073619518 1.2603393698312295, 15.430249037720143 0.8046397422079252 C17.163111001820766 0.348940114584621, 15.474978930152837 1.059663663294921, 15.529496114946785 1.150622365633696" stroke="none" stroke-width="0" fill="#000"></path><path d="M11.437287686961486 1.4291120684568472 C14.757223774175818 0.12930832750736343, 20.159518057981902 -0.31472354044240425, 23.388615864737655 0.9068784248079318 C26.61771367149341 2.128480390058268, 29.420266494592603 5.680991086839336, 30.81187452749601 8.758723859958863 C32.203482560399415 11.83645663307839, 32.82668919914894 16.162685015170933, 31.7382640621581 19.373275063525092 C30.649838925167256 22.583865111879252, 27.06964220563964 25.98857590244106, 24.281323705550957 28.02226415008382 C21.493005205462275 30.055952397726582, 18.265679895332894 31.612642173780696, 15.008353061626016 31.575404549381666 C11.751026227919139 31.538166924982637, 7.172824021195732 30.007650689246393, 4.737362703309692 27.798838403689636 C2.301901385423653 25.59002611813288, 0.8493649591922097 21.791537069120974, 0.3955851543097797 18.322530836041132 C-0.058194650572650275 14.853524602961292, -0.06772177043354555 10.075012658747468, 2.0146838740151125 6.98480100521059 C4.09708951846377 3.894589351673712, 10.97297342723701 0.9291851324378719, 12.890019021001727 -0.21873908518013785 C14.807064614766444 -1.3666633027981476, 13.60288417800491 -0.11794565264201662, 13.516957436603413 0.0972556995025311 M21.597092838269962 0.7561955690176525 C24.56367805822148 1.8085306014214764, 26.234822894288463 5.658022437535362, 28.10169559360934 8.44713318568228 C29.968568292930215 11.236243933829197, 33.3230578552022 14.352685258485074, 32.79832903419521 17.49086005789916 C32.273600213188224 20.629034857313243, 27.665504798399432 24.877294964911897, 24.953322667567395 27.276181982166783 C22.241140536735358 29.67506899942167, 19.509811848420863 31.69425849206126, 16.525236249202994 31.884182161428477 C13.540660649985123 32.074105830795695, 9.813194731020896 30.463098010290633, 7.045869072260173 28.415723998370094 C4.278543413499449 26.368349986449555, 0.7307485554059309 23.123444305307643, -0.0787177033613542 19.59993808990525 C-0.8881839621286393 16.07643187450286, 0.7111856042937308 10.35938157690864, 2.189071519656462 7.274686705955747 C3.666957435019193 4.1899918350028535, 5.832291251375773 2.071493788439285, 8.788597788815034 1.0917688641878875 C11.744904326254295 0.11204393993648987, 18.09823230019425 1.2582416010618518, 19.92691074429203 1.3963371604473611 C21.75558918838981 1.5344327198328704, 19.469009802198883 1.594232819731278, 19.760668453401713 1.9203422205009435" stroke="#fff" stroke-width="2" fill="none"></path></g><g transform="translate(58.102564102564315 88.62820512820542) rotate(0 10.256410256410277 10.256410256410277)"><path d="M15.139680518344093 0.8187073697990925 C16.967658983334022 1.6128971339356335, 17.439147289726627 3.829601959961603, 18.435613482805458 5.652984391944897 C19.43207967588429 7.476366823928191, 21.421692049087767 9.772906315377483, 21.118477676817083 11.759001961698857 C20.8152633045464 13.745097608020231, 18.427731863310246 15.982519162947236, 16.616327249181353 17.569558269873145 C14.804922635052462 19.156597376799052, 12.397342551600547 21.16054813512836, 10.250049992043731 21.281236603254307 C8.102757432486916 21.401925071380255, 5.434091958172893 20.039581153404598, 3.7325718918404593 18.29368907862884 C2.031051825508026 16.547797003853084, 0.43805406662933244 12.960925968473328, 0.04092959404913188 10.805884154599756 C-0.3561948785310687 8.650842340726184, 0.24222857776414064 7.057427089439553, 1.349825056359256 5.363438195387413 C2.4574215349543715 3.6694493013352734, 4.5235171771699925 1.462166558577168, 6.6865084656198235 0.6419507902869164 C8.849499754069655 -0.1782649780033353, 12.768255598579865 0.1594088317334948, 14.327772787058246 0.44214358564590306 C15.887289975536627 0.7248783395583114, 16.020073525337402 2.022876975254499, 16.043611596490106 2.338359313761366 M5.368424965836564 -0.665281539047303 C7.260646070239366 -1.477985874626909, 12.302514772540095 -0.1712673211758461, 14.613698736613435 0.6654140568161644 C16.924882700686776 1.502095434808175, 18.37579314355105 2.5734171690533287, 19.235528750276607 4.35480672890476 C20.095264357002165 6.1361962887561905, 20.045653684488446 9.125185611116187, 19.77211237696678 11.353751415924748 C19.498571069445116 13.582317220733309, 19.06601833769647 16.0900042156388, 17.59428090514662 17.726201557756127 C16.122543472596767 19.362398899873455, 13.304020821596442 21.311148438926082, 10.94168778166768 21.170935468628716 C8.579354741738918 21.03072249833135, 5.026251389500402 18.390460647738685, 3.420282665574044 16.884923735971928 C1.8143139416476866 15.37938682420517, 1.8220421268986877 14.069304088963275, 1.3058754381095348 12.137713998028168 C0.7897087493203818 10.206123907093062, -0.7227337697402596 7.064316122207185, 0.32328253283912645 5.29538319036129 C1.3692988354185125 3.5264502585153945, 6.785409418021444 2.3831054338198436, 7.5819732535858515 1.524116406952798 C8.37853708915026 0.6651273800857523, 4.985833289255178 -0.03482269735986007, 5.102665546225575 0.14144902915901625" stroke="none" stroke-width="0" fill="#000"></path><path d="M13.802144546946558 1.9426943532496068 C15.687729999054401 2.66148957793333, 17.411156383179797 4.6125979724588415, 18.59460719533621 6.407623459746274 C19.77805800749262 8.202648947033707, 21.333493170265243 10.80514659621214, 20.902849419885023 12.712847276974204 C20.472205669504802 14.620547957736267, 17.919564765456116 16.590457670791235, 16.010744693054896 17.853827544318655 C14.101924620653678 19.117197417846075, 11.542819858013528 20.374007620231076, 9.449928985477714 20.29306651813873 C7.357038112941899 20.212125416046383, 5.059602277624433 18.944537592752084, 3.4533994578400113 17.368180931764577 C1.8471966380555898 15.791824270777068, 0.08255323122290364 13.002257170838073, -0.18728793322881643 10.834926552213677 C-0.4571290976805365 8.667595933589281, 0.4623960929853703 5.95310677485605, 1.8343524711296908 4.364197220018198 C3.206308849274011 2.775287665180346, 5.725264083177613 1.621548346907663, 8.044450335637107 1.3014692231865634 C10.3636365880966 0.9813900994654638, 14.111193465458472 1.909824014440337, 15.749469985886652 2.443722477691601 C17.38774650631483 2.9776209409428653, 17.78912833137541 4.425905265481891, 17.874109458206185 4.50486000269415 M5.431954267147926 0.13910639802111469 C7.254281479905263 -0.6951376841833335, 9.975333747352717 -0.619927254685853, 12.261768743699218 -0.1397352115112671 C14.548203740045718 0.34045683166331875, 17.849585573199725 0.9621657426921586, 19.15056424522693 3.02025865706863 C20.451542917254137 5.078351571445101, 20.229500504086218 9.949030078396547, 20.067640775862454 12.208822274747561 C19.90578104763869 14.468614471098576, 19.861543041324914 15.389105697024991, 18.17940587588435 16.57901183517472 C16.497268710443784 17.768917973324452, 12.530631946733306 18.994215318164507, 9.97481778321907 19.34825910364594 C7.419003619704833 19.702302889127374, 4.436945960321413 19.684860852956355, 2.844520894798926 18.703274548063334 C1.2520958292764386 17.721688243170313, 0.6731310050868009 15.547803588278711, 0.42026739008414715 13.458741274287807 C0.1674037750814934 11.369678960296902, 0.39015166215709485 8.265176839202217, 1.3273392047830033 6.168900664117909 C2.2645267474089117 4.0726244890336005, 5.036688042454736 1.9277450263909548, 6.043392645839598 0.8810842237819578 C7.05009724922446 -0.16557657882703913, 7.294263901604395 -0.17985459990567126, 7.367566825092178 -0.1110641515360733" stroke="#fff" stroke-width="2" fill="none"></path></g><g transform="translate(99.88258013346854 63.462842364495316) rotate(37.519113820477294 23.091778840889845 8.24228584063249)"><path d="M0 0 C0 0, 0 0, 0 0 M0 0 C0 0, 0 0, 0 0 M-0.7409162676800384 12.211021410345614 C2.68815746366745 7.89546094183763, 6.295116071063246 3.8952124254159903, 10.220159408402575 1.0134138981893424 M-0.29512093354951274 12.797595224946319 C4.554179177335239 7.282167111310213, 8.502832444475283 3.54465766057681, 10.257167515856159 0.23176879017499696 M4.0155468889135335 20.143644046171623 C10.2822831912743 12.085579691482085, 15.314358633063172 6.30632344546871, 23.156764716187382 -2.0131631238222596 M3.2086039649877165 20.2017632230586 C10.397154924732888 13.71099582703576, 16.437657972499586 6.657396751677222, 21.394334928410018 -0.2614489249721643 M13.459282632925067 17.610354124430415 C21.23423237405486 13.080021172359931, 24.522648417298075 7.140607544775307, 30.046951647332705 1.098801089568365 M14.332991522744749 20.412174610283074 C19.73929729125255 14.75059197961482, 23.863200214154297 9.478606087391022, 32.32258124318609 0.015022528475451935 M24.896398205978322 18.894889856520372 C32.74732981497772 12.79434399733968, 38.30222607332368 5.719766444949052, 41.679900190416504 -1.9434648148388618 M23.8226546996436 20.22209557315268 C28.824955141453994 14.425280282291084, 34.23825055620508 9.040541861405684, 43.30118442289137 -0.9322790207014435 M35.01504926371056 19.198708546839708 C40.98382328468337 14.686097907810538, 44.90343023261269 10.281030050135088, 49.3642434231425 2.7878229039136677 M34.725032598587156 19.804266375050002 C38.887201040331085 15.191309270029024, 43.531837135737156 10.507117533438995, 50.03810005499518 4.521299064939132 M0.1397329010313655 16.606039638968134 C0.1397329010313655 16.606039638968134, 0.1397329010313655 16.606039638968134, 0.1397329010313655 16.606039638968134 M0.1397329010313655 16.606039638968134 C0.1397329010313655 16.606039638968134, 0.1397329010313655 16.606039638968134, 0.1397329010313655 16.606039638968134 M12.728370660239626 16.727739393014446 C10.443364336230044 13.862599598653953, 8.252830916388895 11.469360094025088, 0.4054756152769592 5.942430471082222 M11.933763725006749 17.056368766773478 C7.771186134102938 12.374703967390118, 3.4876319939420863 9.122228311486596, -0.29298232837114074 5.879032633651983 M23.512546356507887 16.861198970248942 C16.21174172539198 10.130902805002636, 10.899127510452029 5.6250595785390125, 1.983512534964643 -3.157851514980317 M24.818268549369026 15.377170570326989 C15.351191582923484 10.289030973784588, 7.922464162013281 3.1243134073417203, 2.908216476645134 -2.7738826560006746 M37.28706032276981 18.013289411582107 C28.011979201238045 8.587307645930164, 21.19216575366542 3.117603918886859, 13.207773586797856 -1.2641934619528161 M35.50734202896141 15.23152898627525 C28.34675551069928 9.186508514220321, 19.912108617630672 3.1101202887768675, 14.74422732653781 -3.105722474610518 M48.421513527778686 14.722461311595662 C38.17190088936516 8.73633236668886, 32.135905451593835 2.3464775151069155, 25.854849961507043 -2.6520848626606686 M48.53609965849459 15.909577099124117 C39.49181088066953 8.939777717374803, 32.36585121503755 1.325749677119573, 25.752482248390933 -2.043964690376125 M48.522189795939745 4.536433197402594 C46.00664856365284 2.058750919675968, 41.82618243178452 0.05744829986326694, 39.24093088258163 -1.6816065637451418 M47.049580354724576 4.406096299815191 C44.97540293839234 2.235630846978477, 42.01110477290401 -0.6341888909073986, 39.69175018991449 -2.582822299335227" stroke="#0000" stroke-width="1" fill="none"></path><path d="M-1.383394142612815 -1.8186580631881952 C11.877600438824455 -1.7322588400951975, 22.674096500364264 -1.5459792451969736, 48.11804232191605 -0.4919359777122736 M0.7887374712154269 -0.8535269601270556 C17.315679241936337 0.7631191506674828, 35.934474154441915 0.05877282169371262, 46.785242873284346 -0.05412087868899107 M46.396648101578926 -0.28507498032968503 C46.65442530933067 3.4055098164540687, 47.70741257765293 7.797968906397869, 46.54096770073575 16.270875097464252 M45.81900693337836 0.051093669955489585 C46.54194465965635 5.240500712245671, 47.07724814587143 10.951506412346639, 45.410351610584094 15.773052550635109 M48.119809540028996 17.298021233547672 C31.107464027297254 16.717561032443335, 19.401249877480556 16.7312065025857, -1.9029547777026892 14.954497194756016 M46.47022800430966 16.347710525524064 C27.806093834243832 16.28042643258744, 9.765490052056421 16.977674265600974, 0.3373099220916629 16.771820967924043 M-0.2846013479203453 16.734945384516863 C-0.6625064018008673 11.269529094832667, -1.4027879161993801 7.762352128728169, 1.4568780814533104 -1.5178367799111416 M0.8161891757096564 16.625954138784195 C0.046307723507589854 11.591624123140305, 0.2971648770629769 6.377463373974568, 0.7277546943544937 -0.8238587580374924" stroke="#fff" stroke-width="2" fill="none"></path></g><g transform="translate(96.56410256410254 47.60256410256409) rotate(0 10.256410256410277 10.256410256410277)"><path d="M6.416744228162277 1.6845945072292476 C8.058338619829868 0.8523113555141015, 10.815384381478369 -0.18232506121586872, 12.722512906765349 0.3043379745845822 C14.62964143205233 0.7910010103850331, 16.597915004677677 2.6992474352591156, 17.859515379884158 4.6045727220319534 C19.12111575509064 6.509898008804791, 20.37519513333323 9.612353080753909, 20.292115158004236 11.73628969522161 C20.209035182675244 13.86022630968931, 18.938899634491715 15.901344561262912, 17.36103552791021 17.348192408838152 C15.783171421328706 18.79504025641339, 12.992431804544136 20.145439680327527, 10.824930518515215 20.41737678067305 C8.657429232486294 20.68931388101857, 5.943691398614261 20.36408192224286, 4.3560278117366895 18.979815010911288 C2.768364224859118 17.595548099579716, 1.8005236192690894 14.297777024493943, 1.298948997249786 12.111775312683626 C0.7973743752304827 9.92577360087331, 0.1685448882758378 7.752484252401647, 1.3465800796208693 5.863804740049384 C2.524615270965901 3.97512522769712, 7.061555862756213 1.8570397704389408, 8.367160145319975 0.7796982385700453 C9.672764427883736 -0.2976432932988502, 9.337205980804706 -0.5347202111482708, 9.180205775003438 -0.6002444511639897 M7.9509788538529005 0.6269516530722647 C9.885207019288497 0.17912606761113342, 11.815662630146228 -0.1735498415103789, 13.973823297880898 0.9600366370266205 C16.131983965615568 2.09362311556362, 20.072077334510833 5.486637738261868, 20.899942860260914 7.42847052429426 C21.727808386010995 9.370303310326653, 20.04501700552526 10.910049636783953, 18.941016452381383 12.611033353220975 C17.837015899237507 14.312017069657998, 16.0044380331131 16.32897511707722, 14.275939541397651 17.634372822916394 C12.547441049682202 18.939770528755567, 10.448344993702136 20.51335902091946, 8.57002550208869 20.44341958825602 C6.691706010475245 20.37348015559258, 4.386417577806103 18.895115348885437, 3.0060225917169774 17.21473622693576 C1.6256276056278514 15.534357104986084, 0.4014572367995554 12.396737694598727, 0.28765558555393334 10.361144856557964 C0.17385393430831125 8.3255520185172, 1.1690797617520354 6.686157169317255, 2.323212684243245 5.001179198691184 C3.4773456067344544 3.316201228065113, 6.281607111920712 1.2489295541765264, 7.212453120501191 0.2512770328015357 C8.14329912908167 -0.7463754885734549, 7.745894039891728 -1.34160231418824, 7.9082887357261225 -0.9847359295587594" stroke="none" stroke-width="0" fill="#000"></path><path d="M7.162085734225409 -0.15286189293201424 C8.828797035021772 -1.1018125564409158, 10.809868998921317 0.011049210057943681, 12.680014252615715 0.6629584711204153 C14.550159506310113 1.3148677321828868, 17.249038356017408 1.8347008161791158, 18.38295725639179 3.7585936734428156 C19.516876156766173 5.682486530706515, 19.59280484753655 9.833031202029133, 19.483527654862005 12.206315614702614 C19.37425046218746 14.579600027376095, 19.158444398734265 16.551590130343044, 17.727294100344533 17.998300149483704 C16.296143801954802 19.445010168624364, 13.139261879177463 20.87023279779182, 10.896625864523614 20.886575729546582 C8.653989849869765 20.902918661301342, 6.025493557289564 19.532132895547512, 4.271478012421443 18.09635774001226 C2.5174624675533215 16.660582584477005, 0.8097947343207508 14.392435183700043, 0.3725325953148886 12.27192479633507 C-0.06472954369097367 10.151414408970096, 0.37170315318724545 7.369202510762284, 1.647905178386269 5.373295415822423 C2.924107203585293 3.377388320882563, 6.866173009019274 1.2348223401234861, 8.02974474650903 0.29648222669590574 C9.193316483998785 -0.6418578867316748, 8.706261827614895 -0.46079088403919055, 8.629335603324801 -0.2567452647430599 M9.767693309880988 0.8981382632103596 C11.717260210778411 0.7417428381570987, 14.761822702432402 2.122932048384519, 16.553498661767758 3.1441526581036143 C18.345174621103112 4.16537326782271, 20.04803476026271 5.360243325262225, 20.51774906589312 7.02546192152493 C20.987463371523532 8.690680517787635, 20.2228927044446 11.269411669951323, 19.37178449555022 13.135464235679846 C18.52067628665584 15.00151680140837, 17.48751821560374 16.835664328914895, 15.411099812526839 18.221777315896066 C13.334681409449937 19.607890302877237, 9.301959426468324 21.698044411721565, 6.91327407708881 21.452142157566882 C4.524588727709297 21.2062399034122, 2.061375312809644 18.711599845698423, 1.0789877162497596 16.746363790967973 C0.09660011968987547 14.781127736237524, 0.6151095215239317 12.1593408548176, 1.0189484977295056 9.660725829184189 C1.4227874739350794 7.162110803550778, 2.3289065615095748 3.3904998132074518, 3.5020215734832023 1.7546736371675058 C4.67513658545683 0.11884746112755984, 6.999589094050619 -0.07931873277822558, 8.057638569571271 -0.15423122705548664 C9.115688045091922 -0.22914372133274769, 9.580244246324986 0.8793998383826018, 9.850318426607112 1.3051986715039394" stroke="#fff" stroke-width="2" fill="none"></path></g><g transform="translate(139.92340680655388 73.02737474695186) rotate(37.519113820477294 2.794541911395413 13.805958586381024)"><path d="M-0.29816128872334957 -0.5435679648071527 L7.019854616720523 0.7369937803596258 L5.015855562288608 29.310554470139024 L-1.0790183153003454 26.318819309788225" stroke="none" stroke-width="0" fill="#000"></path><path d="M0.09386641396272521 0.5143216404633036 C1.50940205949398 0.49882112443222304, 2.289067593306517 0.4965682466177993, 5.875857178320819 -0.20616750007433465 M-0.2781936348009352 0.2067555435774554 C1.5578455897457075 0.2688184940699859, 3.505508344732025 0.02866552179249382, 5.613256371201921 -0.16761784680745856 M4.461918674756135 -1.3888607826083899 C3.9536528781955074 10.03632695096545, 7.209546883494122 21.906989309173078, 5.907640241433229 28.648801460134266 M5.776732287716414 -0.02094957698136568 C6.545334184122204 7.394726828226702, 6.458860093307614 14.716312771703812, 6.318426958632018 27.734427362883864 M5.310872923510336 27.544207405954204 C4.1640286652950795 27.804776971043783, 2.632625211636131 27.44371332920385, 0.14572141396343286 27.309391237092715 M5.539989387695634 27.54598155602992 C4.188668985195605 27.764270503183116, 2.5190281558565375 27.812590895416047, -0.2689965421648645 27.43936744023526 M1.1466889884322882 27.43607778774428 C0.022262022320461372 18.38316403011046, -1.0163042690117834 6.862761029922929, 1.8066859152168036 -1.4641865696758032 M-0.5839784247800708 28.38937461396533 C0.8767157461457942 22.31893214338827, 0.5476707782560084 15.121623332174005, -0.9750745100900531 0.1783234430477023" stroke="#fff" stroke-width="2" fill="none"></path></g><g><g transform="translate(151.5 83.75) rotate(0 3.0560369785874855 3.1439255842938962)"><path d="M-0.5530557397753 1.046385306492448 C0.5474132812271515 1.6531647824992737, 5.479710038130482 4.016583929831783, 6.665129696950316 4.475601488724351 M1.357451267503202 0.5501336470618843 C2.26514523571978 1.2423400961731872, 4.840438939196368 5.081367281215886, 5.541277324222028 5.737717521525919" stroke="#fff" stroke-width="2" fill="none"></path></g></g><g><g transform="translate(142 94.25) rotate(0 3.4852584155835302 2.7765020073019)"><path d="M0.5363978382200003 -1.1399512823671103 C1.8913582837829988 -0.3776168442020815, 6.432650859778127 4.222985683257381, 7.611648857221008 5.101986915245652 M-0.641132026053965 0.8759703490510584 C0.6546613646174471 1.8053981154536212, 5.683673692209025 6.006129955189924, 6.984719043634832 6.692955296970904" stroke="#fff" stroke-width="2" fill="none"></path></g></g><g><g transform="translate(147.5 99.25) rotate(0 0.7962830412946573 4.160189322317024)"><path d="M0.6592053238302469 -1.0998133901506661 C0.47194424706200755 0.43741659683485823, -0.004191074396173097 6.575981155658762, -0.09215596280992022 8.439519202336669 M-0.45385061049833886 0.9371806346811353 C-0.37494504138206436 2.6545741130349536, 1.5424897425932187 8.235698050602029, 2.046416693087667 9.420192034784705" stroke="#fff" stroke-width="2" fill="none"></path></g></g><g><g transform="translate(156.5 88.25) rotate(0 3.3541316803544987 -0.859657609090192)"><path d="M-0.7425869230180979 0.986638993397355 C0.35696504476169744 0.47634235856433693, 6.296376975004872 -2.1037062065054974, 7.45085028372705 -2.7059542115777733 M1.0684162130579353 0.45902051959186796 C1.9747116751099627 0.1039358996724089, 5.475856017929813 -0.9708251766984661, 6.739501219056547 -1.2766549214348197" stroke="#fff" stroke-width="2" fill="none"></path></g></g><g><g transform="translate(163.5 85.75) rotate(0 1.3251857281383081 7.060282964492217)"><path d="M0.026618415489792824 0.897534107789397 C0.6010867698738972 3.042801916226744, 3.3298693561305606 11.640356444939972, 4.068917101994157 13.797430359944702 M-1.4185456457175314 0.3231355690397324 C-1.0505026940939326 2.0077867251075805, 2.264431899146487 9.938870366755873, 3.1570531169138847 11.831006550136953" stroke="#fff" stroke-width="2" fill="none"></path></g></g><g><g transform="translate(148 107.75) rotate(0 6.511066711321462 -0.4487778011709338)"><path d="M-0.7786439951509236 0.4757100697606802 C1.5645849132289493 0.295013141259551, 11.338879762465755 -1.051652682200074, 13.80077741779387 -1.3732656721025704 M1.0134291780553757 -0.32014608895406127 C3.203831974522521 -0.2600911567173898, 10.71317276880766 0.19605644786730422, 12.748140098508447 0.23069510126486437" stroke="#fff" stroke-width="2" fill="none"></path></g></g></svg>